<?xml version="1.0" encoding="utf-8"?>
<!-- Generator: Adobe Illustrator 19.0.0, SVG Export Plug-In . SVG Version: 6.00 Build 0)  -->
<svg version="1.1" id="Camada_1" xmlns="http://www.w3.org/2000/svg" xmlns:xlink="http://www.w3.org/1999/xlink" x="0px" y="0px"
	 viewBox="0 0 726.2 513.1" style="enable-background:new 0 0 726.2 513.1;" xml:space="preserve">
<path id="XMLID_3_" d="M97.3,393v30H63.7v90.2h-30V423H0v-30H97.3z"/>
<g id="XMLID_1_">
	<polygon id="XMLID_20_" points="496.3,363.1 581,363.1 581,217 	"/>
	<path id="XMLID_26_" d="M0,0v72.6l246.5,0h72.6c60.2,0,108.9,48.8,108.9,108.9c0,60.2-48.8,108.9-109,108.9H204.2l-42.1,72.6h250.3
		L580.7,72.6l0.3,0.1v-0.1h72.6v290.5h72.6V0H0z"/>
	<path id="XMLID_27_" d="M355.5,181.6c0-20.1-16.3-36.3-36.3-36.3h-30.8l-42.1,72.6h72.8C339.2,217.9,355.5,201.6,355.5,181.6z"/>
</g>
<path id="XMLID_5_" d="M203.4,423h-61.1V438h52.9v30h-52.9v15.1h61.1v30h-91.1V393h91.1V423z"/>
<path id="XMLID_7_" d="M218.4,393h30v29l29.8-29H322l-50.7,49.4l51.8,70.7h-37.7l-37-52.4l0,0v52.4h-30V393z"/>
<path id="XMLID_9_" d="M338.1,393h26.3l47.7,69.4V393h30v120.2h-31.7l-42.3-61.9v61.9h-30V393z"/>
<path id="XMLID_18_" d="M487.1,513.1h-30V393h30V513.1z"/>
<path id="XMLID_25_" d="M655.3,393h28.4l42.5,120.2h-31.8l-7.1-20.3h-35.9l-7.1,20.3h-31.8L655.3,393z M662,462.9h14.7l-7.4-20.8
	L662,462.9z"/>
<path id="XMLID_33_" d="M502.1,393h30v29l29.8-29h43.7l-50.7,49.4l51.8,70.7h-37.7l-37-52.4l0,0v52.4h-30V393z"/>
</svg>
