<?xml version="1.0" encoding="utf-8"?>
<!-- Generator: Adobe Illustrator 19.0.0, SVG Export Plug-In . SVG Version: 6.00 Build 0)  -->
<svg version="1.1" id="Camada_1" xmlns="http://www.w3.org/2000/svg" xmlns:xlink="http://www.w3.org/1999/xlink" x="0px" y="0px"
	 viewBox="0 0 726.8 514.8" style="enable-background:new 0 0 726.8 514.8;" xml:space="preserve">
<style type="text/css">
	.st0{fill:#171F54;}
	.st1{fill:none;}
</style>
<g id="XMLID_1_">
	<polygon id="XMLID_20_" class="st0" points="496.7,363.4 581.4,363.4 581.4,217.2 	"/>
	<path id="XMLID_26_" class="st0" d="M0,0v72.7l246.7,0h72.7c60.2,0,109,48.8,109,109c0,60.2-48.8,109-109.1,109h-115l-42.1,72.7
		h250.5L581.2,72.7l0.3,0.1v-0.1h72.7v290.7h72.7V0H0z"/>
	<path id="XMLID_27_" class="st0" d="M355.7,181.7c0-20.1-16.3-36.3-36.3-36.3h-30.8L246.5,218h72.9
		C339.4,218,355.7,201.8,355.7,181.7z"/>
</g>
<g id="XMLID_25_">
	<path id="XMLID_3_" class="st0" d="M97.9,394.6v30H64.2v90.2h-30v-90.2H0.5v-30H97.9z"/>
	<path id="XMLID_5_" class="st0" d="M203.9,424.6h-61.1v15.1h52.9v30h-52.9v15.1h61.1v30h-91.1V394.6h91.1V424.6z"/>
	<path id="XMLID_7_" class="st0" d="M218.9,394.6h30v29l29.8-29h43.7l-50.7,49.4l51.8,70.7h-37.7l-37-52.4l0,0v52.4h-30V394.6z"/>
	<path id="XMLID_9_" class="st0" d="M338.6,394.6H365l47.7,69.4v-69.4h30v120.2h-31.7l-42.3-61.9v61.9h-30V394.6z"/>
	<path id="XMLID_18_" class="st0" d="M487.6,514.8h-30V394.6h30V514.8z"/>
	<g id="XMLID_52_">
		<polygon id="XMLID_53_" class="st1" points="662.5,464.6 677.2,464.6 669.9,443.7 		"/>
		<path id="XMLID_58_" class="st0" d="M684.3,394.6h-28.4L613,514.8h31.8l7.1-20.3h35.9l7.1,20.3h31.8L684.3,394.6z M662.5,464.6
			l7.4-20.8l7.4,20.8H662.5z"/>
	</g>
	<path id="XMLID_33_" class="st0" d="M502.6,394.6h30v29l29.8-29h43.7l-50.7,49.4l51.8,70.7h-37.7l-37-52.4l0,0v52.4h-30V394.6z"/>
</g>
</svg>
