<?xml version="1.0" encoding="utf-8"?>
<!-- Generator: Adobe Illustrator 19.0.0, SVG Export Plug-In . SVG Version: 6.00 Build 0)  -->
<svg version="1.1" id="Camada_1" xmlns="http://www.w3.org/2000/svg" xmlns:xlink="http://www.w3.org/1999/xlink" x="0px" y="0px"
	 viewBox="0 0 1041.2 150" style="enable-background:new 0 0 1041.2 150;" xml:space="preserve">
<style type="text/css">
	.st0{fill:none;stroke:#BA007C;stroke-miterlimit:10;}
</style>
<path id="XMLID_3_" d="M412.3,29.8v30h-33.7V150h-30V59.8H315v-30H412.3z"/>
<g id="XMLID_1_">
	<polygon id="XMLID_20_" points="205,150 240,150 240,89.7 	"/>
	<path id="XMLID_26_" d="M0,0v30l101.8,0h30c24.9,0,45,20.1,45,45c0,24.9-20.2,45-45,45H84.4L67,150h103.4l69.5-120l0.1,0.1V30h30
		v120h30V0H0z"/>
	<path id="XMLID_27_" d="M146.8,75c0-8.3-6.7-15-15-15h-12.7l-17.4,30h30.1C140.1,90,146.8,83.3,146.8,75z"/>
</g>
<path id="XMLID_5_" d="M518.4,59.8h-61.1v15.1h52.9v30h-52.9V120h61.1v30h-91.1V29.8h91.1V59.8z"/>
<path id="XMLID_7_" d="M533.4,29.8h30v29l29.8-29H637l-50.7,49.4l51.8,70.7h-37.7l-37-52.4l0,0V150h-30V29.8z"/>
<path id="XMLID_9_" d="M653.1,29.8h26.3l47.7,69.4V29.8h30V150h-31.7l-42.3-61.9V150h-30V29.8z"/>
<path id="XMLID_18_" d="M802.1,150h-30V29.8h30V150z"/>
<path id="XMLID_25_" d="M970.3,29.8h28.4l42.5,120.2h-31.8l-7.1-20.3h-35.9l-7.1,20.3h-31.8L970.3,29.8z M977,99.8h14.7l-7.4-20.8
	L977,99.8z"/>
<path id="XMLID_33_" d="M817.1,29.8h30v29l29.8-29h43.7l-50.7,49.4l51.8,70.7h-37.7l-37-52.4l0,0V150h-30V29.8z"/>
<path id="XMLID_13_" class="st0" d="M101.8,30"/>
</svg>
